HIERARCHY
ROOT Hips
{
  OFFSET 3.13124 94.3669 -3.18751
  CHANNELS  6 Xposition Yposition Zposition Zrotation Xrotation Yrotation
  JOINT LeftUpLeg
  {
    OFFSET 8.64259 1.95398 -2.38835
    CHANNELS 3 Zrotation Xrotation Yrotation
    JOINT LeftLeg
    {
      OFFSET 43.7702 0 0
      CHANNELS 3 Zrotation Xrotation Yrotation
      JOINT LeftFoot
      {
        OFFSET 40.6238 0 0
        CHANNELS 3 Zrotation Xrotation Yrotation
        JOINT LeftToeBase
        {
          OFFSET 12.7242 0 0
          CHANNELS 3 Zrotation Xrotation Yrotation
          End Site
          {
            OFFSET 0 0 0
          }
        }
      }
    }
  }
  JOINT RightUpLeg
  {
    OFFSET -8.2249 1.95398 -2.59336
    CHANNELS 3 Zrotation Xrotation Yrotation
    JOINT RightLeg
    {
      OFFSET 43.5653 0 0
      CHANNELS 3 Zrotation Xrotation Yrotation
      JOINT RightFoot
      {
        OFFSET 40.6238 0 0
        CHANNELS 3 Zrotation Xrotation Yrotation
        JOINT RightToeBase
        {
          OFFSET 12.7242 0 0
          CHANNELS 3 Zrotation Xrotation Yrotation
          End Site
          {
            OFFSET 0 0 0
          }
        }
      }
    }
  }
  JOINT Spine
  {
    OFFSET 0.165834 0.87714 6.61349
    CHANNELS 3 Zrotation Xrotation Yrotation
    JOINT Spine1
    {
      OFFSET 7.38962 1.71661e-005 0
      CHANNELS 3 Zrotation Xrotation Yrotation
      JOINT Spine2
      {
        OFFSET 11.9445 1.14441e-005 0
        CHANNELS 3 Zrotation Xrotation Yrotation
        JOINT Spine3
        {
          OFFSET 14.7254 4.19617e-005 0
          CHANNELS 3 Zrotation Xrotation Yrotation
          JOINT Spine4
          {
            OFFSET 10.9679 0 0
            CHANNELS 3 Zrotation Xrotation Yrotation
            JOINT RightShoulder
            {
              OFFSET 2.46616 -1.6653 3.69651
              CHANNELS 3 Zrotation Xrotation Yrotation
              JOINT RightArm
              {
                OFFSET 13.0012 0 0
                CHANNELS 3 Zrotation Xrotation Yrotation
                JOINT RightForeArm
                {
                  OFFSET 28.7848 1.52588e-005 0
                  CHANNELS 3 Zrotation Xrotation Yrotation
                  JOINT RightHand
                  {
                    OFFSET 26.5688 1.52588e-005 0
                    CHANNELS 3 Zrotation Xrotation Yrotation
                    End Site
                    {
                      OFFSET 0 0 0
                    }
                  }
                }
              }
            }
            JOINT LeftShoulder
            {
              OFFSET 2.38034 -1.29275 -3.75231
              CHANNELS 3 Zrotation Xrotation Yrotation
              JOINT LeftArm
              {
                OFFSET 16.3182 6.10352e-005 0
                CHANNELS 3 Zrotation Xrotation Yrotation
                JOINT LeftForeArm
                {
                  OFFSET 27.0901 0 0
                  CHANNELS 3 Zrotation Xrotation Yrotation
                  JOINT LeftHand
                  {
                    OFFSET 24.5451 1.52588e-005 0
                    CHANNELS 3 Zrotation Xrotation Yrotation
                    End Site
                    {
                      OFFSET 0 0 0
                    }
                  }
                }
              }
            }
            JOINT Neck
            {
              OFFSET 5.0226 -0.0266342 0
              CHANNELS 3 Zrotation Xrotation Yrotation
              JOINT Head
              {
                OFFSET 6.69363 2.86102e-005 0
                CHANNELS 3 Zrotation Xrotation Yrotation
                End Site
                {
                  OFFSET 0 0 0
                }
              }
            }
          }
        }
      }
    }
  }
}
MOTION
Frames:	12
Frame Time:	0.0333333
-55.7168 60.3964 -38.29 18.4713 37.5377 160.312 9.56969 59.9232 -62.8113 78.6175 45.3404 -164.45 85.7934 -22.8025 104.262 28.7808 7.84896e-006 -4.05806e-006 172.829 62.899 51.4545 -23.5231 7.37095 -0.561843 56.4781 16.8355 11.0126 28.7808 1.19511e-005 1.33979e-005 2.73955 9.08662 -90.1891 8.60513 2.86456 0.919228 -3.06291 2.90215 0.792169 -25.6152 2.4544 1.73801 -5.60259 2.45441 1.73799 102.168 -18.2236 -82.1284 118.555 9.46404 -82.5494 -63.1606 -21.1197 -143.459 -38.9425 9.07884 -30.7092 -77.7571 -21.1053 97.0916 146.413 71.1505 -165.663 -140.711 -6.45346 179.945 22.0371 52.4689 -16.6437 46.7423 -0.729329 -7.09516 0.442658 3.2662 -1.12535 
-56.0333 59.9315 -38.2901 18.2996 37.1805 161.083 9.56459 58.4948 -62.852 78.6577 44.2057 -165.347 86.1646 -22.8175 105.357 28.7808 7.84896e-006 -4.05806e-006 173.506 63.229 51.1563 -24.5154 7.63062 -0.734315 56.906 16.5611 10.7196 28.7808 1.19511e-005 1.33979e-005 2.86194 9.12408 -90.0256 8.51719 2.99523 1.30218 -3.15085 3.05089 1.16894 -25.7011 2.46818 2.14288 -5.68846 2.4682 2.14289 102.168 -18.2236 -82.1284 123.955 6.11675 -86.9637 -69.1129 -25.2177 -151.953 -40.3785 9.00196 -29.0803 -77.7571 -21.1053 97.0916 128.833 80.7577 -150.227 -131.06 -1.07257 179.935 42.7122 65.2004 -36.3094 47.8338 -2.12727 -7.74436 -0.825651 2.37385 -1.67077 
-56.0293 60.1678 -37.4003 17.8422 36.9787 161.67 10.6243 58.2041 -65.0783 77.966 49.9698 -163.963 85.982 -22.917 100.147 28.7808 7.84896e-006 -4.05806e-006 174.263 63.9571 50.868 -25.1836 8.14459 -0.745702 56.825 15.7645 10.2493 28.7808 1.19511e-005 1.33979e-005 2.54943 9.15118 -89.8286 8.47342 3.00929 1.57837 -3.19484 3.07519 1.44437 -25.7416 2.39466 2.4096 -5.72896 2.39464 2.40955 102.168 -18.2236 -82.1284 133.67 1.1228 -90.2577 -80.4258 -29.7552 -167.631 -41.0254 9.15581 -27.9363 -77.7571 -21.1053 97.0916 121.423 80.3896 -144.26 -131.64 4.55328 179.935 37.9482 69.0361 -33.5022 47.9582 -2.02526 -5.32712 -1.3615 1.157 -4.624 
-56.1953 60.1295 -36.847 17.5608 36.9793 162.049 11.7798 57.8778 -67.0634 76.238 54.4519 -162.191 85.1264 -23.2254 95.7135 28.7808 7.84896e-006 -4.05806e-006 174.581 64.6327 50.4121 -25.9521 7.99814 -0.364597 57.0059 14.9732 9.73822 28.7808 1.19511e-005 1.33979e-005 2.38262 9.18159 -89.6995 8.415 2.93773 1.82133 -3.25373 3.01499 1.69025 -25.796 2.25488 2.61977 -5.78333 2.25487 2.61975 102.168 -18.2236 -82.1284 146.625 -5.09077 -92.2217 -99.6546 88.2297 179.002 -36.6887 8.50367 -26.2329 -77.7571 -21.1053 97.0916 135.505 65.3767 -158.852 -147.247 3.23627 179.954 31.1998 68.6744 -24.1834 47.4075 -1.48222 -2.60954 -1.45723 0.0368183 -7.39441 
-57.0201 58.5323 -37.9881 18.1294 36.7723 161.878 12.0832 56.2733 -65.7063 73.2726 50.0772 -162.613 83.6413 -22.1005 98.8372 28.7808 7.84896e-006 -4.05806e-006 173.471 64.7928 49.9937 -26.3194 6.42475 0.399718 57.8707 15.257 9.73404 28.7808 1.19511e-005 1.33979e-005 2.90859 9.19537 -89.64 8.35397 2.78172 2.17291 -3.31559 2.87503 2.04785 -25.8503 1.99767 2.91189 -5.83765 1.99767 2.91187 102.168 -18.2236 -82.1284 163.282 -11.6049 -90.4387 -119.002 61.952 179.942 -32.8671 8.31314 -23.8682 -77.7571 -21.1053 97.0916 142.946 25.8622 -164.12 174.222 -9.2214 -179.991 29.3923 65.8907 -22.6854 47.2443 -1.96637 -2.69244 -1.98485 -0.352153 -7.67062 
-57.2354 58.2186 -37.5679 18.085 36.8313 161.846 12.5567 55.7081 -66.8619 72.869 51.2004 -162.635 83.8349 -22.5373 98.483 28.7808 7.84896e-006 -4.05806e-006 174.011 66.0993 48.9677 -27.8378 6.34809 0.798995 57.6617 15.0848 9.69019 28.7808 1.19511e-005 1.33979e-005 2.83223 9.26403 -89.7023 8.22034 2.44459 2.13128 -3.44986 2.53613 2.02091 -25.9813 1.69051 2.77268 -5.96871 1.69051 2.77267 102.168 -18.2236 -82.1284 -175.551 -17.8815 -79.8453 -141.57 61.0478 179.96 -29.1549 9.73582 -23.1761 -77.7571 -21.1053 97.0916 -5.34448 64.2134 -25.8637 -108.513 34.2995 -179.995 16.632 56.2457 -7.27642 45.3531 1.38212 7.07603 -0.617145 -2.82763 -16.2264 
-57.3592 57.8977 -37.0969 17.7136 36.6492 162.186 13.0997 54.8938 -68.2555 72.7713 52.0573 -162.796 84.5186 -22.1175 98.5896 28.7808 7.84896e-006 -4.05806e-006 174.163 67.3022 47.9817 -29.0902 5.54417 1.74333 58.1961 14.7588 9.40834 28.7808 1.19511e-005 1.33979e-005 2.73788 9.2838 -89.6462 8.18078 2.18464 2.29322 -3.49024 2.28343 2.19489 -26.0157 1.39476 2.83573 -6.00301 1.39476 2.83573 102.168 -18.2236 -82.1284 -170.9 -22.6412 -74.1345 -149.798 63.3086 179.965 -22.926 8.63451 -22.5388 -77.7571 -21.1053 97.0916 -20.6382 35.6984 -18.9532 50.0301 -72.802 -70.8932 17.0663 52.7722 -4.20537 46.3937 1.98972 8.87234 -1.85247 -3.17165 -17.5268 
-57.1889 57.9091 -36.1287 17.8014 36.289 161.946 14.0393 54.4693 -69.52 72.8805 54.2461 -162.108 85.4475 -21.9942 97.4873 28.7808 7.84896e-006 -4.05806e-006 175.194 69.1296 46.8482 -30.5205 4.95576 2.42619 58.5193 14.5597 9.26968 28.7808 1.19511e-005 1.33979e-005 2.50929 9.13592 -89.3143 8.48092 2.0473 2.90643 -3.19145 2.17317 2.8136 -25.7052 1.07972 3.38686 -5.69255 1.07972 3.38688 102.168 -18.2236 -82.1284 -169.415 -24.7273 -73.726 -153.631 62.3813 179.97 -23.615 7.90257 -19.1209 -77.7571 -21.1053 97.0916 -30.6738 6.38507 -20.6333 30.1105 -43.7732 -102.528 17.1339 46.9843 -1.7586 46.0637 0.0374135 2.2294 -1.94922 -1.2135 -12.2034 
-56.9324 57.7288 -35.3976 18.1852 36.0126 161.429 15.2043 54.0176 -70.3553 72.9053 55.1247 -161.843 86.3846 -22.6117 96.5466 28.7808 7.84896e-006 -4.05806e-006 175.913 70.7026 45.8742 -31.6242 3.96395 3.1813 59.0674 14.7835 9.35839 28.7808 1.19511e-005 1.33979e-005 2.37765 9.10105 -89.0932 8.54699 1.86434 3.37261 -3.12678 2.01089 3.28741 -25.6295 0.765372 3.77643 -5.61682 0.765363 3.77642 102.168 -18.2236 -82.1284 -160.615 -26.3523 -68.8314 -162.654 66.881 179.966 -22.3433 7.38927 -17.0089 -77.7571 -21.1053 97.0916 -27.6535 5.11093 -24.138 24.3827 -40.6831 -109.688 20.8015 52.1038 -1.5758 47.952 -1.115 -2.09068 -3.69125 0.289578 -8.5637 
-56.5763 57.4427 -34.7326 18.9376 35.7558 160.471 16.3089 53.7391 -70.2688 72.8421 54.75 -161.525 86.8871 -23.1507 96.7559 28.7808 7.84896e-006 -4.05806e-006 176.814 72.9311 44.354 -33.5118 2.34808 4.48407 59.2729 15.2701 9.7196 28.7808 1.19511e-005 1.33979e-005 2.32201 9.06352 -88.9773 8.61888 1.6179 3.72135 -3.05616 1.77999 3.64667 -25.5497 0.425703 4.03505 -5.53702 0.425697 4.03503 102.168 -18.2236 -82.1284 -164.604 -29.5322 -69.6068 -161.138 64.6354 179.971 -21.6629 7.60073 -18.475 -77.7571 -21.1053 97.0916 -23.7366 7.41838 -27.4241 17.6119 -44.2665 -116.994 18.8811 54.6254 -1.64266 48.0596 -0.740507 -3.10713 -3.73762 1.23415 -7.7869 
-56.1722 57.1804 -34.043 19.761 35.4739 159.251 17.3824 53.6285 -70.0341 72.7781 54.4111 -161.131 87.6742 -23.6029 96.893 28.7808 7.84896e-006 -4.05806e-006 177.679 75.0492 42.7778 -34.6665 0.0476638 5.85357 59.6837 15.2991 9.78539 28.7808 1.19511e-005 1.33979e-005 2.22569 9.02714 -88.822 8.6919 1.35839 4.09009 -2.98454 1.53693 4.02648 -25.4683 0.0676074 4.30888 -5.4556 0.0675996 4.30888 102.168 -18.2236 -82.1284 -160.119 -30.0577 -67.1669 -164.272 65.0945 179.972 -21.5761 7.53584 -18.1048 -77.7571 -21.1053 97.0916 -22.7336 2.25776 -30.6179 18.3627 -44.3741 -118.964 14.1869 51.2508 -2.00545 48.1254 -0.55086 -4.61905 -3.78884 2.28221 -5.98235 
-55.7414 57.0557 -33.2074 20.7575 35.3178 157.656 18.7005 53.987 -70.4329 72.6069 55.4421 -160.492 87.7353 -24.0827 96.2957 28.7808 7.84896e-006 -4.05806e-006 178.463 77.5666 40.9984 -35.8144 -3.20094 7.65236 59.9914 15.0558 9.78116 28.7808 1.19511e-005 1.33979e-005 2.09395 9.00224 -88.6925 8.74584 1.12224 4.37409 -2.93181 1.31347 4.32061 -25.4079 -0.242792 4.509 -5.39521 -0.242789 4.50898 102.168 -18.2236 -82.1284 -162.399 -31.5906 -68.8418 -162.731 62.0643 179.976 -23.6997 8.17705 -18.5459 -77.7571 -21.1053 97.0916 -18.4439 1.99455 -32.8858 8.67659 -40.2332 -125.768 16.6482 60.136 -4.4419 47.5098 0.247664 -4.62049 -2.97172 2.89131 -5.61839 
